<svg xmlns="http://www.w3.org/2000/svg" xmlns:xlink="http://www.w3.org/1999/xlink" width="500" zoomAndPan="magnify" viewBox="0 0 375 374.999991" height="500" preserveAspectRatio="xMidYMid meet" version="1.0"><defs><filter x="0%" y="0%" width="100%" height="100%" id="ac2e36f3a3"><feColorMatrix values="0 0 0 0 1 0 0 0 0 1 0 0 0 0 1 0 0 0 1 0" color-interpolation-filters="sRGB"/></filter><g/><mask id="2b6ede046a"><g filter="url(#ac2e36f3a3)"><rect x="-37.5" width="450" fill="#000000" y="-37.499999" height="449.999989" fill-opacity="0.96"/></g></mask><clipPath id="a65eb87131"><path d="M 0.601562 1.070312 L 153.960938 1.070312 L 153.960938 152 L 0.601562 152 Z M 0.601562 1.070312 " clip-rule="nonzero"/></clipPath><clipPath id="5ca2d7b5c8"><rect x="0" width="154" y="0" height="153"/></clipPath><clipPath id="614996c2f9"><path d="M 154.390625 129.761719 L 220.609375 129.761719 L 220.609375 187.84375 L 154.390625 187.84375 Z M 154.390625 129.761719 " clip-rule="nonzero"/></clipPath><clipPath id="0e9ef9c31c"><path d="M 154.390625 146.894531 C 154.390625 165.34375 187.5 187.84375 187.5 187.84375 C 187.5 187.84375 220.460938 165.183594 220.609375 146.894531 C 220.609375 137.453125 212.914062 129.761719 203.472656 129.761719 C 196.214844 129.761719 189.964844 134.40625 187.5 140.792969 C 185.035156 134.40625 178.785156 129.761719 171.527344 129.761719 C 162.085938 129.761719 154.390625 137.453125 154.390625 146.894531 " clip-rule="nonzero"/></clipPath><mask id="346b1c6dfd"><g filter="url(#ac2e36f3a3)"><rect x="-37.5" width="450" fill="#000000" y="-37.499999" height="449.999989" fill-opacity="0.82"/></g></mask><clipPath id="ecba7113ec"><path d="M 0.152344 0.617188 L 52.847656 0.617188 L 52.847656 46.84375 L 0.152344 46.84375 Z M 0.152344 0.617188 " clip-rule="nonzero"/></clipPath><clipPath id="3bc71a3253"><path d="M 0.152344 14.257812 C 0.152344 28.9375 26.5 46.84375 26.5 46.84375 C 26.5 46.84375 52.734375 28.8125 52.847656 14.257812 C 52.847656 6.742188 46.726562 0.617188 39.210938 0.617188 C 33.433594 0.617188 28.460938 4.316406 26.5 9.398438 C 24.539062 4.316406 19.566406 0.617188 13.789062 0.617188 C 6.273438 0.617188 0.152344 6.742188 0.152344 14.257812 " clip-rule="nonzero"/></clipPath><clipPath id="ae1e4a640a"><rect x="0" width="54" y="0" height="47"/></clipPath></defs><g mask="url(#2b6ede046a)"><g transform="matrix(1, 0, 0, 1, 111, 79)"><g clip-path="url(#5ca2d7b5c8)"><path fill="#1b9ce4" d="M 27.472656 72.214844 C 27.472656 46.265625 48.507812 25.230469 74.457031 25.230469 C 86.320312 25.230469 97.152344 29.628906 105.421875 36.882812 C 96.425781 22.9375 80.757812 13.707031 62.929688 13.707031 C 35.027344 13.707031 12.402344 36.328125 12.402344 64.234375 C 12.402344 88.480469 29.480469 108.730469 52.261719 113.628906 C 37.503906 105.707031 27.472656 90.132812 27.472656 72.214844 " fill-opacity="1" fill-rule="nonzero"/><g clip-path="url(#a65eb87131)"><path fill="#183e9f" d="M 122.980469 1.417969 C 122.054688 1.070312 121.644531 2.039062 121.484375 3.339844 C 121.171875 5.882812 122.191406 8.398438 124.117188 10.085938 C 144.261719 27.738281 140.351562 70.988281 127.1875 68.410156 C 118.542969 66.71875 127.75 41.023438 120.542969 40.148438 C 115.757812 39.566406 111.503906 51.476562 111.808594 67.179688 C 111.980469 76.164062 114.867188 83.582031 117.402344 90.015625 C 121.074219 99.339844 117.699219 110.011719 109.253906 115.402344 C 82.378906 132.554688 46.285156 129.390625 22.808594 105.914062 C 10.40625 93.511719 3.679688 77.585938 2.617188 61.359375 C -2.570312 85.390625 4.199219 111.480469 22.921875 130.125 C 46.519531 153.628906 84.203125 158.519531 113.046875 141.863281 C 140.425781 126.050781 151.875 93.515625 153.503906 63.269531 C 155.578125 24.792969 133.496094 5.378906 122.980469 1.417969 Z M 119.207031 22.472656 C 129.671875 31.671875 133.628906 47.777344 133.164062 60.75 C 134.804688 56.730469 135.699219 50.835938 135.492188 44.53125 C 135.222656 36.097656 133.214844 28.203125 129.859375 21.800781 C 125.515625 17.625 121.238281 14.984375 118.039062 13.777344 C 117.089844 13.421875 116.679688 14.441406 116.53125 15.789062 C 116.25 18.320312 117.296875 20.792969 119.207031 22.472656 " fill-opacity="1" fill-rule="nonzero"/></g></g></g></g><g clip-path="url(#614996c2f9)"><g clip-path="url(#0e9ef9c31c)"><path fill="#183e9f" d="M 154.390625 129.761719 L 220.609375 129.761719 L 220.609375 187.84375 L 154.390625 187.84375 Z M 154.390625 129.761719 " fill-opacity="1" fill-rule="nonzero"/></g></g><g mask="url(#346b1c6dfd)"><g transform="matrix(1, 0, 0, 1, 161, 141)"><g clip-path="url(#ae1e4a640a)"><g clip-path="url(#ecba7113ec)"><g clip-path="url(#3bc71a3253)"><path fill="#54afe6" d="M 0.152344 0.617188 L 52.847656 0.617188 L 52.847656 46.84375 L 0.152344 46.84375 Z M 0.152344 0.617188 " fill-opacity="1" fill-rule="nonzero"/></g></g></g></g></g><g fill="#183172" fill-opacity="1"><g transform="translate(108.724613, 266.779845)"><g><path d="M 22.015625 0 L 16.828125 0 L 14.3125 -7.34375 L 6.75 -7.34375 L 4.125 0 L 0.0625 0 L 9.140625 -25.625 L 12.953125 -25.625 Z M 13.15625 -10.78125 C 12.039062 -14.207031 11.15625 -17.125 10.5 -19.53125 C 9.707031 -16.613281 8.851562 -13.695312 7.9375 -10.78125 Z M 13.15625 -10.78125 "/></g></g></g><g fill="#183172" fill-opacity="1"><g transform="translate(130.804625, 266.779845)"><g><path d="M 18.546875 -8.78125 C 18.546875 -6.21875 17.804688 -4.039062 16.328125 -2.25 C 14.847656 -0.46875 12.847656 0.421875 10.328125 0.421875 C 8.179688 0.421875 6.453125 -0.382812 5.140625 -2 L 4.40625 0.03125 L 2.234375 0.03125 C 2.328125 -0.988281 2.375 -1.757812 2.375 -2.28125 L 2.375 -24.953125 C 2.375 -24.972656 2.296875 -25.28125 2.140625 -25.875 C 1.992188 -26.476562 1.910156 -26.8125 1.890625 -26.875 L 6.578125 -26.875 L 6.578125 -18.40625 C 6.578125 -17.84375 6.566406 -17.3125 6.546875 -16.8125 C 6.523438 -16.3125 6.515625 -16.039062 6.515625 -16 C 7.910156 -17.1875 9.550781 -17.78125 11.4375 -17.78125 C 12.9375 -17.78125 14.238281 -17.3125 15.34375 -16.375 C 16.457031 -15.445312 17.269531 -14.3125 17.78125 -12.96875 C 18.289062 -11.625 18.546875 -10.226562 18.546875 -8.78125 Z M 13.96875 -8.578125 C 13.96875 -9.460938 13.847656 -10.328125 13.609375 -11.171875 C 13.378906 -12.023438 12.945312 -12.800781 12.3125 -13.5 C 11.6875 -14.207031 10.921875 -14.5625 10.015625 -14.5625 C 8.722656 -14.5625 7.578125 -14 6.578125 -12.875 L 6.578125 -7.171875 C 6.578125 -5.847656 6.867188 -4.726562 7.453125 -3.8125 C 8.035156 -2.90625 8.957031 -2.453125 10.21875 -2.453125 C 11.15625 -2.453125 11.921875 -2.816406 12.515625 -3.546875 C 13.109375 -4.285156 13.5 -5.078125 13.6875 -5.921875 C 13.875 -6.773438 13.96875 -7.660156 13.96875 -8.578125 Z M 13.96875 -8.578125 "/></g></g></g><g fill="#183172" fill-opacity="1"><g transform="translate(150.330213, 266.779845)"><g><path d="M 6.46875 0 L 2.28125 0 L 2.28125 -15.5 C 2.28125 -15.53125 2.25 -15.679688 2.1875 -15.953125 C 2.125 -16.234375 2.054688 -16.535156 1.984375 -16.859375 C 1.921875 -17.191406 1.890625 -17.367188 1.890625 -17.390625 L 6.46875 -17.390625 Z M 6.265625 -25.65625 C 6.796875 -25.113281 7.0625 -24.46875 7.0625 -23.71875 C 7.0625 -22.976562 6.800781 -22.34375 6.28125 -21.8125 C 5.757812 -21.289062 5.125 -21.03125 4.375 -21.03125 C 3.625 -21.03125 2.988281 -21.289062 2.46875 -21.8125 C 1.945312 -22.34375 1.6875 -22.976562 1.6875 -23.71875 C 1.6875 -24.46875 1.945312 -25.109375 2.46875 -25.640625 C 2.988281 -26.179688 3.625 -26.453125 4.375 -26.453125 C 5.125 -26.453125 5.753906 -26.1875 6.265625 -25.65625 Z M 6.265625 -25.65625 "/></g></g></g><g fill="#183172" fill-opacity="1"><g transform="translate(159.113232, 266.779845)"><g><path d="M 6.46875 0 L 2.203125 0 L 2.203125 -25.03125 C 2.203125 -25.050781 2.171875 -25.203125 2.109375 -25.484375 C 2.054688 -25.765625 1.992188 -26.066406 1.921875 -26.390625 C 1.847656 -26.710938 1.8125 -26.890625 1.8125 -26.921875 L 6.46875 -26.921875 Z M 6.46875 0 "/></g></g></g><g fill="#183172" fill-opacity="1"><g transform="translate(167.896252, 266.779845)"><g><path d="M 6.46875 0 L 2.28125 0 L 2.28125 -15.5 C 2.28125 -15.53125 2.25 -15.679688 2.1875 -15.953125 C 2.125 -16.234375 2.054688 -16.535156 1.984375 -16.859375 C 1.921875 -17.191406 1.890625 -17.367188 1.890625 -17.390625 L 6.46875 -17.390625 Z M 6.265625 -25.65625 C 6.796875 -25.113281 7.0625 -24.46875 7.0625 -23.71875 C 7.0625 -22.976562 6.800781 -22.34375 6.28125 -21.8125 C 5.757812 -21.289062 5.125 -21.03125 4.375 -21.03125 C 3.625 -21.03125 2.988281 -21.289062 2.46875 -21.8125 C 1.945312 -22.34375 1.6875 -22.976562 1.6875 -23.71875 C 1.6875 -24.46875 1.945312 -25.109375 2.46875 -25.640625 C 2.988281 -26.179688 3.625 -26.453125 4.375 -26.453125 C 5.125 -26.453125 5.753906 -26.1875 6.265625 -25.65625 Z M 6.265625 -25.65625 "/></g></g></g><g fill="#183172" fill-opacity="1"><g transform="translate(176.679271, 266.779845)"><g><path d="M 11.4375 -0.390625 C 9.875 0.0976562 8.5 0.34375 7.3125 0.34375 C 5.800781 0.34375 4.691406 -0.00390625 3.984375 -0.703125 C 3.285156 -1.398438 2.9375 -2.519531 2.9375 -4.0625 L 2.9375 -14.625 L 0.0625 -14.625 L 0.0625 -16.9375 C 0.957031 -16.957031 1.753906 -17.269531 2.453125 -17.875 C 3.148438 -18.488281 3.671875 -19.179688 4.015625 -19.953125 C 4.367188 -20.722656 4.648438 -21.5625 4.859375 -22.46875 L 7.90625 -22.46875 C 7.4375 -20.488281 7.203125 -18.796875 7.203125 -17.390625 L 11.4375 -17.390625 L 10.609375 -14.625 L 7.203125 -14.625 L 7.203125 -5 C 7.203125 -3.4375 7.695312 -2.65625 8.6875 -2.65625 C 9.21875 -2.65625 9.972656 -2.773438 10.953125 -3.015625 Z M 11.4375 -0.390625 "/></g></g></g><g fill="#183172" fill-opacity="1"><g transform="translate(188.121691, 266.779845)"><g><path d="M 16.03125 -17.390625 L 9.828125 0.109375 C 8.054688 5.191406 5.523438 7.734375 2.234375 7.734375 L 0.9375 7.734375 L 0.9375 4.765625 C 1.21875 4.828125 1.523438 4.859375 1.859375 4.859375 C 2.484375 4.859375 3.046875 4.710938 3.546875 4.421875 C 4.054688 4.128906 4.476562 3.703125 4.8125 3.140625 C 5.144531 2.585938 5.410156 2.082031 5.609375 1.625 C 5.816406 1.164062 6.023438 0.613281 6.234375 -0.03125 L -0.0625 -17.390625 L 4.4375 -17.390625 C 4.601562 -16.898438 5.101562 -15.484375 5.9375 -13.140625 C 6.78125 -10.796875 7.414062 -8.992188 7.84375 -7.734375 C 7.9375 -7.429688 8.035156 -6.957031 8.140625 -6.3125 C 8.242188 -5.675781 8.304688 -5.273438 8.328125 -5.109375 C 8.585938 -6.597656 8.75 -7.472656 8.8125 -7.734375 L 12.1875 -17.390625 Z M 16.03125 -17.390625 "/></g></g></g><g fill="#183172" fill-opacity="1"><g transform="translate(204.078084, 266.779845)"><g><path d="M 17.21875 0 L 2.3125 0 L 2.3125 -23.484375 C 2.3125 -23.503906 2.273438 -23.675781 2.203125 -24 C 2.128906 -24.332031 2.050781 -24.671875 1.96875 -25.015625 C 1.894531 -25.367188 1.859375 -25.570312 1.859375 -25.625 L 7.171875 -25.625 L 7.171875 -3.46875 L 17.21875 -3.46875 Z M 17.21875 0 "/></g></g></g><g fill="#183172" fill-opacity="1"><g transform="translate(222.064018, 266.779845)"><g><path d="M 6.46875 0 L 2.28125 0 L 2.28125 -15.5 C 2.28125 -15.53125 2.25 -15.679688 2.1875 -15.953125 C 2.125 -16.234375 2.054688 -16.535156 1.984375 -16.859375 C 1.921875 -17.191406 1.890625 -17.367188 1.890625 -17.390625 L 6.46875 -17.390625 Z M 6.265625 -25.65625 C 6.796875 -25.113281 7.0625 -24.46875 7.0625 -23.71875 C 7.0625 -22.976562 6.800781 -22.34375 6.28125 -21.8125 C 5.757812 -21.289062 5.125 -21.03125 4.375 -21.03125 C 3.625 -21.03125 2.988281 -21.289062 2.46875 -21.8125 C 1.945312 -22.34375 1.6875 -22.976562 1.6875 -23.71875 C 1.6875 -24.46875 1.945312 -25.109375 2.46875 -25.640625 C 2.988281 -26.179688 3.625 -26.453125 4.375 -26.453125 C 5.125 -26.453125 5.753906 -26.1875 6.265625 -25.65625 Z M 6.265625 -25.65625 "/></g></g></g><g fill="#183172" fill-opacity="1"><g transform="translate(230.847038, 266.779845)"><g><path d="M 17.015625 0 L 12.78125 0 L 12.78125 -11.34375 C 12.78125 -11.988281 12.742188 -12.515625 12.671875 -12.921875 C 12.597656 -13.335938 12.382812 -13.710938 12.03125 -14.046875 C 11.6875 -14.390625 11.195312 -14.5625 10.5625 -14.5625 C 10.050781 -14.5625 9.394531 -14.34375 8.59375 -13.90625 C 7.789062 -13.476562 7.191406 -13.054688 6.796875 -12.640625 L 6.796875 0 L 2.59375 0 L 2.59375 -12.453125 C 2.59375 -14.785156 2.226562 -16.382812 1.5 -17.25 L 5.921875 -17.78125 C 6.191406 -17.175781 6.390625 -16.429688 6.515625 -15.546875 C 8.234375 -17.109375 10.003906 -17.890625 11.828125 -17.890625 C 13.722656 -17.890625 15.0625 -17.363281 15.84375 -16.3125 C 16.625 -15.257812 17.015625 -13.742188 17.015625 -11.765625 Z M 17.015625 0 "/></g></g></g><g fill="#183172" fill-opacity="1"><g transform="translate(249.987715, 266.779845)"><g><path d="M 17.1875 0 L 12.453125 0 L 6.6875 -8.921875 L 6.6875 0 L 2.375 0 L 2.375 -25.03125 L 1.921875 -26.921875 L 6.6875 -26.921875 L 6.6875 -10.21875 L 12.078125 -17.390625 L 16.171875 -17.390625 L 10.53125 -10.046875 Z M 17.1875 0 "/></g></g></g></svg>